<svg width="200" height="201" viewBox="0 0 200 201" fill="none" xmlns="http://www.w3.org/2000/svg">
<rect width="200" height="201" rx="100" fill="black"/>
<path d="M137.155 123.079C137.155 106.168 124.971 100.335 113.894 98.4885C123.715 96.1992 132.725 89.11 132.725 76.3346C132.725 56.3962 114.559 50.5623 95.5062 50.5623H67.6662V152.47H97.5C117.512 152.47 137.155 145.824 137.155 123.079ZM115.371 77.7377C115.371 88.3715 109.463 92.8762 98.0908 92.8762H84.7985V63.4115H97.057C108.725 63.4115 115.371 67.4731 115.371 77.7377ZM119.285 123.005C119.285 136.593 108.355 139.178 98.6077 139.178H84.7985V105.578H99.3462C110.571 105.578 119.285 109.344 119.285 123.005Z" fill="white"/>
</svg>
